Coordinates
version=1
nRows=17
nColumns=40
inDegrees=yes

Units are S.I. units (second, meters, Newtons, ...)
Angles are in degrees.

endheader
time	pelvis_tilt	pelvis_list	pelvis_rotation	pelvis_tx	pelvis_ty	pelvis_tz	hip_flexion_r	hip_adduction_r	hip_rotation_r	knee_angle_r	knee_angle_r_beta	ankle_angle_r	subtalar_angle_r	mtp_angle_r	hip_flexion_l	hip_adduction_l	hip_rotation_l	knee_angle_l	knee_angle_l_beta	ankle_angle_l	subtalar_angle_l	mtp_angle_l	lumbar_extension	lumbar_bending	lumbar_rotation	arm_flex_r	arm_add_r	arm_rot_r	elbow_flex_r	pro_sup_r	wrist_flex_r	wrist_dev_r	arm_flex_l	arm_add_l	arm_rot_l	elbow_flex_l	pro_sup_l	wrist_flex_l	wrist_dev_l
     26.76000000	     -2.62763343	     -6.15276928	      1.27897927	      0.87620501	      0.93276744	      0.52215568	      7.43759113	      6.60179655	    -16.84529954	     12.89805007	     12.89805007	     10.35827285	      1.36167779	     -3.52941764	     31.65356159	    -13.54236316	      0.76104802	     61.58236136	     61.58236136	      9.55544140	    -18.90275861	     15.66325341	     -8.98198836	      7.18311068	      4.12380112	     18.61693366	    -15.63823710	     -5.62651277	     62.75211707	     44.68402548	      0.00000000	      0.00000000	      7.72830248	     -6.69481843	     -4.56089064	     26.83416835	     44.63130545	      0.00000000	      0.00000000
     26.77242857	     -2.71072865	     -6.10304756	      1.48795781	      0.87482471	      0.93284534	      0.52291176	      6.76409267	      6.71339964	    -16.86908162	     12.28580329	     12.28580329	     10.49836161	      1.47409537	     -3.52343673	     32.48980195	    -13.52104556	      0.50788804	     58.62206757	     58.62206757	      9.89081934	    -18.89573252	     15.71938385	     -8.94145501	      7.09605275	      3.96353705	     20.63548057	    -15.57780892	     -5.83776092	     64.92998564	     44.63602617	      0.00000000	      0.00000000	      6.39264217	     -6.79973002	     -4.49610123	     26.13081394	     44.62090940	      0.00000000	      0.00000000
     26.78485714	     -2.79159927	     -6.07993865	      1.70244697	      0.87348377	      0.93284761	      0.52355991	      6.07215999	      6.84086005	    -17.01660428	     11.63418252	     11.63418252	     10.59981322	      1.78004784	     -3.58355375	     33.08895386	    -13.44263392	      0.26941508	     55.30861924	     55.30861924	     10.06763915	    -18.86747364	     15.63059113	     -8.94916230	      7.06871136	      3.82902587	     22.55756301	    -15.59033135	     -5.97737428	     67.48912402	     44.57401734	      0.00000000	      0.00000000	      5.06871686	     -6.88062047	     -4.33671999	     25.45230419	     44.59549515	      0.00000000	      0.00000000
     26.79728571	     -2.89694401	     -6.03652983	      1.88945506	      0.87218146	      0.93270461	      0.52411699	      5.46454508	      6.92093378	    -17.16730746	     11.09681880	     11.09681880	     10.75455046	      2.09312850	     -3.69191033	     33.50129813	    -13.27864115	      0.01190844	     51.73102425	     51.73102425	     10.11901246	    -18.73977250	     15.58353127	     -8.91049963	      7.01886918	      3.90883376	     24.43110210	    -15.76744638	     -6.13382266	     69.81259059	     44.51990895	      0.00000000	      0.00000000	      3.84547127	     -6.90853780	     -4.13473388	     24.86799509	     44.55881951	      0.00000000	      0.00000000
     26.80971429	     -2.97118419	     -6.09509676	      2.08040826	      0.87103505	      0.93237372	      0.52458089	      4.79580201	      7.09888942	    -17.48690033	     10.49956118	     10.49956118	     10.78300020	      2.65938388	     -4.22812081	     33.65423727	    -13.18457087	     -0.22924799	     47.83031055	     47.83031055	      9.30531366	    -18.61879035	     13.21338860	     -8.95220660	      7.11737092	      4.77587864	     25.17236574	    -16.49513865	     -7.11397210	     74.23454040	     44.59684253	      0.00000000	      0.00000000	      2.93950195	     -7.18162436	     -0.31897623	     24.30032316	     44.17425932	      0.00000000	      0.00000000
     26.82214286	     -3.07151217	     -6.04873910	      2.24889358	      0.86986511	      0.93200465	      0.52484296	      4.27431282	      7.13359026	    -17.62211909	     10.14311203	     10.14311203	     11.02417690	      2.91465322	     -4.29217890	     33.74742740	    -12.82255444	     -0.29171649	     43.96049171	     43.96049171	      9.33431102	    -18.28433594	     13.57000447	     -8.89286246	      7.05760719	      4.76070877	     27.20738522	    -16.56003639	     -7.21250858	     75.89533667	     44.56428830	      0.00000000	      0.00000000	      1.69043849	     -7.22567184	     -0.15369822	     23.90236123	     44.14385288	      0.00000000	      0.00000000
     26.83457143	     -3.17168101	     -6.05877262	      2.42105447	      0.86876826	      0.93145823	      0.52492668	      3.75489847	      7.20567610	    -17.87721525	      9.79399169	      9.79399169	     11.28189495	      3.36236159	     -4.39235006	     33.76495901	    -12.48000030	     -0.27642125	     40.09724573	     40.09724573	      9.28025756	    -17.70060578	     13.63369145	     -8.83951608	      7.08419176	      4.72600565	     29.14590421	    -16.60820762	     -7.28086868	     77.76978955	     44.52503528	      0.00000000	      0.00000000	      0.40663403	     -7.25471670	      0.07833169	     23.61428910	     44.09962190	      0.00000000	      0.00000000
     26.84700000	     -3.26784516	     -6.08710365	      2.61377388	      0.86777093	      0.93079177	      0.52481577	      3.24675164	      7.27252517	    -18.23824596	      9.49198801	      9.49198801	     11.60289168	      3.95024805	     -4.51096818	     33.72338031	    -12.14086899	     -0.25912728	     36.30125648	     36.30125648	      9.07718057	    -16.81236017	     13.33151244	     -8.79303861	      7.16175632	      4.72388362	     30.97056641	    -16.70309931	     -7.33777752	     79.80011908	     44.48469672	      0.00000000	      0.00000000	     -0.89498731	     -7.28427679	      0.43444526	     23.54272235	     44.03479539	      0.00000000	      0.00000000
     26.85942857	     -3.45141055	     -6.07795937	      2.76309203	      0.86676985	      0.92992144	      0.52461710	      2.89693925	      7.28694070	    -18.37271773	      9.30680765	      9.30680765	     11.92951604	      4.19023565	     -4.61777935	     33.75407982	    -11.80482719	     -0.37008187	     32.71818148	     32.71818148	      9.04186808	    -15.45355922	     13.41002443	     -8.60870393	      7.15043174	      4.93447941	     32.75720865	    -16.96326330	     -7.51194549	     81.11814825	     44.46294731	      0.00000000	      0.00000000	     -1.98322902	     -7.25002693	      0.62020736	     23.37909061	     43.99156208	      0.00000000	      0.00000000
     26.87185714	     -3.53583660	     -6.12779264	      2.94246468	      0.86591513	      0.92909140	      0.52426902	      2.42124425	      7.36218517	    -18.60501656	      9.10870816	      9.10870816	     12.28737544	      4.55645100	     -4.72283398	     33.68738956	    -11.51293427	     -0.44276309	     29.39819882	     29.39819882	      8.97503805	    -13.97188901	     13.41923690	     -8.52918604	      7.20795577	      4.97284845	     34.45891447	    -17.03312689	     -7.63149011	     82.63752043	     44.43282888	      0.00000000	      0.00000000	     -3.15634277	     -7.26913278	      0.83641552	     23.25168991	     43.93932527	      0.00000000	      0.00000000
     26.88428571	     -3.59235179	     -6.18305472	      3.14062451	      0.86523105	      0.92820532	      0.52373652	      1.89631586	      7.43489348	    -18.89328600	      8.90463816	      8.90463816	     12.67997049	      4.99154160	     -4.78624184	     33.61994806	    -11.24081106	     -0.62567604	     26.45666914	     26.45666914	      8.85001906	    -12.39738492	     13.29467192	     -8.46076260	      7.29123984	      4.95029601	     36.06717450	    -17.08010850	     -7.72769209	     84.24708425	     44.40189223	      0.00000000	      0.00000000	     -4.38847688	     -7.30764025	      1.11936600	     23.32182722	     43.87519236	      0.00000000	      0.00000000
     26.89671429	     -3.68083604	     -6.23672472	      3.34878459	      0.86456346	      0.92726259	      0.52309183	      1.40982886	      7.50311524	    -19.16111894	      8.70607468	      8.70607468	     13.06469076	      5.38349409	     -4.79366397	     33.64935892	    -10.96469829	     -0.86416076	     23.97206365	     23.97206365	      8.62762108	    -10.92593216	     13.22574297	     -8.38824656	      7.34092799	      4.95981538	     37.59466399	    -17.18930139	     -7.83994276	     85.69607279	     44.37773791	      0.00000000	      0.00000000	     -5.54164876	     -7.31139489	      1.44388912	     23.51560930	     43.80535190	      0.00000000	      0.00000000
     26.90914286	     -3.75468531	     -6.31599771	      3.57299553	      0.86407144	      0.92624547	      0.52225754	      0.90110132	      7.56279495	    -19.62833618	      8.56186270	      8.56186270	     13.69420572	      6.17361213	     -4.30077810	     33.73160581	    -10.71885591	     -1.18567856	     22.00715648	     22.00715648	      8.04776319	     -9.70644472	     12.22099998	     -8.31706478	      7.43731126	      5.09142717	     38.82763997	    -17.47648315	     -7.93896340	     87.56735992	     44.39475002	      0.00000000	      0.00000000	     -7.19235534	     -7.67218032	      3.26991284	     25.33071014	     43.52645079	      0.00000000	      0.00000000
     26.92157143	     -3.80294825	     -6.27928038	      3.74389382	      0.86366054	      0.92536156	      0.52139101	      0.35117779	      7.54997496	    -19.62500095	      8.37156280	      8.37156280	     14.08379113	      6.14700317	     -4.31023903	     33.76479688	    -10.36226116	     -1.53695242	     20.54682426	     20.54682426	      7.85006714	     -8.91200083	     12.49408248	     -8.23876285	      7.34241471	      5.04817953	     40.19839201	    -17.42901346	     -8.07243453	     88.39085856	     44.39187322	      0.00000000	      0.00000000	     -8.15202745	     -7.69319656	      3.66527374	     25.04358163	     43.46985957	      0.00000000	      0.00000000
     26.93400000	     -3.91119368	     -6.28994025	      3.97069948	      0.86329242	      0.92437039	      0.52026919	     -0.13272405	      7.56184290	    -19.67527442	      8.18128075	      8.18128075	     14.43206282	      6.24056662	     -4.26304978	     34.00971767	    -10.03110506	     -1.85471585	     19.77427577	     19.77427577	      7.51992854	     -8.39743420	     12.64166253	     -8.04761596	      7.39092101	      5.05607634	     41.48022129	    -17.53794978	     -8.22438455	     89.21291280	     44.38959773	      0.00000000	      0.00000000	     -8.99896413	     -7.66225056	      4.00315049	     25.02273589	     43.42344420	      0.00000000	      0.00000000
     26.94642857	     -4.04473568	     -6.27805227	      4.13615695	      0.86308365	      0.92329365	      0.51915496	     -0.58411121	      7.54208626	    -19.70986710	      8.03897340	      8.03897340	     14.81793154	      6.28414177	     -4.25976998	     34.28091494	     -9.70735626	     -2.17674609	     19.52160563	     19.52160563	      7.22096294	     -8.30085211	     12.72658905	     -7.83522186	      7.33853114	      5.15911497	     42.55592817	    -17.75814756	     -8.39702771	     89.80915172	     44.38714020	      0.00000000	      0.00000000	     -9.74782107	     -7.63432984	      4.15053368	     24.92747443	     43.39734174	      0.00000000	      0.00000000
     26.95885714	     -4.12362044	     -6.23351430	      4.28547637	      0.86318099	      0.92230678	      0.51786635	     -1.11307672	      7.45764289	    -19.86300521	      7.94818103	      7.94818103	     15.52270780	      6.66262534	     -3.34393840	     34.37101455	     -9.36039150	     -2.45513907	     19.53882825	     19.53882825	      6.54669287	     -8.55032223	     11.83410887	     -7.70864969	      7.26143515	      5.17927693	     43.26984352	    -17.84243596	     -8.56517688	     91.03015205	     44.44916290	      0.00000000	      0.00000000	    -11.07140022	     -7.90987029	      5.95712471	     26.25330929	     43.25716119	      0.00000000	      0.00000000
